<svg width="125" height="126" viewBox="0 0 125 126" fill="none" xmlns="http://www.w3.org/2000/svg">
<path d="M2.07812 23C3.73158 23 5.31732 23.6609 6.48649 24.8373C7.65567 26.0136 8.3125 27.6091 8.3125 29.2727C8.3125 29.8273 8.53145 30.3591 8.92117 30.7512C9.31089 31.1434 9.83947 31.3636 10.3906 31.3636C10.9418 31.3636 11.4704 31.1434 11.8601 30.7512C12.2498 30.3591 12.4688 29.8273 12.4688 29.2727C12.4688 27.6091 13.1256 26.0136 14.2948 24.8373C15.4639 23.6609 17.0497 23 18.7031 23C19.2543 23 19.7829 22.7797 20.1726 22.3876C20.5623 21.9955 20.7812 21.4636 20.7812 20.9091C20.7812 20.3546 20.5623 19.8227 20.1726 19.4306C19.7829 19.0385 19.2543 18.8182 18.7031 18.8182C17.0497 18.8182 15.4639 18.1573 14.2948 16.981C13.1256 15.8046 12.4688 14.2091 12.4688 12.5455C12.4688 11.9909 12.2498 11.4591 11.8601 11.067C11.4704 10.6749 10.9418 10.4546 10.3906 10.4546C9.83947 10.4546 9.31089 10.6749 8.92117 11.067C8.53145 11.4591 8.3125 11.9909 8.3125 12.5455C8.3125 14.2091 7.65567 15.8046 6.48649 16.981C5.31732 18.1573 3.73158 18.8182 2.07812 18.8182C1.52697 18.8182 0.998393 19.0385 0.608669 19.4306C0.218945 19.8227 0 20.3546 0 20.9091C0 21.4636 0.218945 21.9955 0.608669 22.3876C0.998393 22.7797 1.52697 23 2.07812 23ZM10.3906 18.8182C10.9823 19.6099 11.6819 20.3138 12.4688 20.9091C11.6819 21.5044 10.9823 22.2083 10.3906 23C9.79897 22.2083 9.09938 21.5044 8.3125 20.9091C9.09938 20.3138 9.79897 19.6099 10.3906 18.8182Z" fill="black"/>
<path d="M24.9375 0H20.7812V4.18182H24.9375V0Z" fill="black"/>
<path d="M24.9375 8.36365H20.7812V12.5455H24.9375V8.36365Z" fill="black"/>
<path d="M20.7812 4.18182H16.625V8.36364H20.7812V4.18182Z" fill="black"/>
<path d="M29.0938 4.18182H24.9375V8.36364H29.0938V4.18182Z" fill="black"/>
<path d="M112.219 117.091C112.219 117.645 112.438 118.177 112.827 118.569C113.217 118.962 113.746 119.182 114.297 119.182C114.848 119.182 115.377 118.962 115.766 118.569C116.156 118.177 116.375 117.645 116.375 117.091C116.375 115.427 117.032 113.832 118.201 112.655C119.37 111.479 120.956 110.818 122.609 110.818C123.161 110.818 123.689 110.598 124.079 110.206C124.469 109.814 124.688 109.282 124.688 108.727C124.688 108.173 124.469 107.641 124.079 107.249C123.689 106.857 123.161 106.636 122.609 106.636C120.956 106.636 119.37 105.975 118.201 104.799C117.032 103.623 116.375 102.027 116.375 100.364C116.375 99.8091 116.156 99.2773 115.766 98.8851C115.377 98.493 114.848 98.2727 114.297 98.2727C113.746 98.2727 113.217 98.493 112.827 98.8851C112.438 99.2773 112.219 99.8091 112.219 100.364C112.219 102.027 111.562 103.623 110.393 104.799C109.224 105.975 107.638 106.636 105.984 106.636C105.433 106.636 104.905 106.857 104.515 107.249C104.125 107.641 103.906 108.173 103.906 108.727C103.906 109.282 104.125 109.814 104.515 110.206C104.905 110.598 105.433 110.818 105.984 110.818C107.638 110.818 109.224 111.479 110.393 112.655C111.562 113.832 112.219 115.427 112.219 117.091ZM114.297 106.636C114.889 107.428 115.588 108.132 116.375 108.727C115.588 109.323 114.889 110.026 114.297 110.818C113.705 110.026 113.006 109.323 112.219 108.727C113.006 108.132 113.705 107.428 114.297 106.636Z" fill="black"/>
<path d="M99.75 121.273H95.5938V125.455H99.75V121.273Z" fill="black"/>
<path d="M99.75 112.909H95.5938V117.091H99.75V112.909Z" fill="black"/>
<path d="M103.906 117.091H99.75V121.273H103.906V117.091Z" fill="black"/>
<path d="M95.5938 117.091H91.4375V121.273H95.5938V117.091Z" fill="black"/>
<path d="M10.3906 85.7273H27.982L35.671 97.3423C35.8614 97.6294 36.1196 97.8647 36.4223 98.0271C36.7251 98.1894 37.0632 98.2738 37.4062 98.2727H87.2812C87.6233 98.2728 87.9601 98.1879 88.2617 98.0256C88.5633 97.8633 88.8204 97.6285 89.0103 97.3423L96.7055 85.7273H114.297C117.053 85.7273 119.696 84.6258 121.644 82.6652C123.593 80.7046 124.688 78.0454 124.688 75.2727C124.688 72.5 123.593 69.8409 121.644 67.8802C119.696 65.9196 117.053 64.8182 114.297 64.8182H108.062V48.0909C108.062 35.891 103.246 24.1907 94.6718 15.564C86.0979 6.93733 74.4691 2.09091 62.3438 2.09091C50.2184 2.09091 38.5896 6.93733 30.0157 15.564C21.4418 24.1907 16.625 35.891 16.625 48.0909V64.8182H10.3906C7.63486 64.8182 4.99196 65.9196 3.04334 67.8802C1.09472 69.8409 0 72.5 0 75.2727C0 78.0454 1.09472 80.7046 3.04334 82.6652C4.99196 84.6258 7.63486 85.7273 10.3906 85.7273ZM86.1695 94.0909H38.518L32.9757 85.7273H91.7118L86.1695 94.0909ZM62.3438 6.27273C73.3629 6.28546 83.9272 10.6954 91.7189 18.535C99.5107 26.3747 103.894 37.0039 103.906 48.0909H78.9688V41.8182C78.9654 39.0465 77.8697 36.3893 75.9218 34.4294C73.9739 32.4695 71.3329 31.367 68.5781 31.3636V27.1818C68.5781 26.6273 68.3592 26.0954 67.9695 25.7033C67.5797 25.3112 67.0512 25.0909 66.5 25.0909C65.9488 25.0909 65.4203 25.3112 65.0305 25.7033C64.6408 26.0954 64.4219 26.6273 64.4219 27.1818V31.3636H60.2656V27.1818C60.2656 26.6273 60.0467 26.0954 59.657 25.7033C59.2672 25.3112 58.7387 25.0909 58.1875 25.0909C57.6363 25.0909 57.1078 25.3112 56.718 25.7033C56.3283 26.0954 56.1094 26.6273 56.1094 27.1818V31.3636C53.3546 31.367 50.7136 32.4695 48.7657 34.4294C46.8178 36.3893 45.722 39.0465 45.7188 41.8182V48.0909H20.7812C20.7939 37.0039 25.1769 26.3747 32.9686 18.535C40.7603 10.6954 51.3246 6.28546 62.3438 6.27273ZM68.5781 35.5455C70.2316 35.5455 71.8173 36.2063 72.9865 37.3827C74.1557 38.5591 74.8125 40.1546 74.8125 41.8182V48.0909H49.875V41.8182C49.875 40.1546 50.5318 38.5591 51.701 37.3827C52.8702 36.2063 54.4559 35.5455 56.1094 35.5455H68.5781ZM20.7812 52.2727H103.906V64.8182H20.7812V52.2727ZM10.3906 69H114.297C115.95 69 117.536 69.6609 118.705 70.8372C119.874 72.0136 120.531 73.6091 120.531 75.2727C120.531 76.9364 119.874 78.5318 118.705 79.7082C117.536 80.8846 115.95 81.5455 114.297 81.5455H10.3906C8.73717 81.5455 7.15143 80.8846 5.98226 79.7082C4.81308 78.5318 4.15625 76.9364 4.15625 75.2727C4.15625 73.6091 4.81308 72.0136 5.98226 70.8372C7.15143 69.6609 8.73717 69 10.3906 69Z" fill="black"/>
<path d="M62.3436 14.6364C62.8948 14.6364 63.4234 14.4161 63.8131 14.024C64.2028 13.6318 64.4217 13.1 64.4217 12.5455C64.4217 11.9909 64.2028 11.4591 63.8131 11.067C63.4234 10.6748 62.8948 10.4545 62.3436 10.4545C55.9944 10.4413 49.7471 12.0613 44.1951 15.1605C38.643 18.2597 33.9705 22.7353 30.621 28.1625C30.3284 28.6338 30.2338 29.2029 30.3581 29.7444C30.4825 30.2859 30.8155 30.7555 31.284 31.05C31.7524 31.3445 32.318 31.4396 32.8562 31.3145C33.3944 31.1894 33.8612 30.8544 34.1539 30.383C37.1295 25.5587 41.2812 21.5797 46.2149 18.8238C51.1486 16.0678 56.7006 14.6264 62.3436 14.6364Z" fill="black"/>
<path d="M58.1875 39.7273H54.0312V43.9091H58.1875V39.7273Z" fill="black"/>
<path d="M70.6562 39.7273H66.5V43.9091H70.6562V39.7273Z" fill="black"/>
<path d="M49.875 112.909V104.545C49.875 103.991 49.6561 103.459 49.2663 103.067C48.8766 102.675 48.348 102.455 47.7969 102.455C47.2457 102.455 46.7171 102.675 46.3274 103.067C45.9377 103.459 45.7188 103.991 45.7188 104.545V112.909C45.7188 113.464 45.9377 113.995 46.3274 114.388C46.7171 114.78 47.2457 115 47.7969 115C48.348 115 48.8766 114.78 49.2663 114.388C49.6561 113.995 49.875 113.464 49.875 112.909Z" fill="black"/>
<path d="M60.2656 119.182V104.545C60.2656 103.991 60.0467 103.459 59.657 103.067C59.2672 102.675 58.7387 102.455 58.1875 102.455C57.6363 102.455 57.1078 102.675 56.718 103.067C56.3283 103.459 56.1094 103.991 56.1094 104.545V119.182C56.1094 119.736 56.3283 120.268 56.718 120.66C57.1078 121.052 57.6363 121.273 58.1875 121.273C58.7387 121.273 59.2672 121.052 59.657 120.66C60.0467 120.268 60.2656 119.736 60.2656 119.182Z" fill="black"/>
<path d="M68.5781 123.364V104.545C68.5781 103.991 68.3592 103.459 67.9695 103.067C67.5797 102.675 67.0512 102.455 66.5 102.455C65.9488 102.455 65.4203 102.675 65.0305 103.067C64.6408 103.459 64.4219 103.991 64.4219 104.545V123.364C64.4219 123.918 64.6408 124.45 65.0305 124.842C65.4203 125.234 65.9488 125.455 66.5 125.455C67.0512 125.455 67.5797 125.234 67.9695 124.842C68.3592 124.45 68.5781 123.918 68.5781 123.364Z" fill="black"/>
<path d="M76.8906 112.909V104.545C76.8906 103.991 76.6717 103.459 76.282 103.067C75.8922 102.675 75.3637 102.455 74.8125 102.455C74.2613 102.455 73.7328 102.675 73.343 103.067C72.9533 103.459 72.7344 103.991 72.7344 104.545V112.909C72.7344 113.464 72.9533 113.995 73.343 114.388C73.7328 114.78 74.2613 115 74.8125 115C75.3637 115 75.8922 114.78 76.282 114.388C76.6717 113.995 76.8906 113.464 76.8906 112.909Z" fill="black"/>
<path d="M10.3906 77.3636H16.625C17.1762 77.3636 17.7047 77.1434 18.0945 76.7512C18.4842 76.3591 18.7031 75.8273 18.7031 75.2727C18.7031 74.7182 18.4842 74.1864 18.0945 73.7942C17.7047 73.4021 17.1762 73.1818 16.625 73.1818H10.3906C9.83947 73.1818 9.31089 73.4021 8.92117 73.7942C8.53145 74.1864 8.3125 74.7182 8.3125 75.2727C8.3125 75.8273 8.53145 76.3591 8.92117 76.7512C9.31089 77.1434 9.83947 77.3636 10.3906 77.3636Z" fill="black"/>
<path d="M108.062 77.3636H114.297C114.848 77.3636 115.377 77.1434 115.766 76.7512C116.156 76.3591 116.375 75.8273 116.375 75.2727C116.375 74.7182 116.156 74.1864 115.766 73.7942C115.377 73.4021 114.848 73.1818 114.297 73.1818H108.062C107.511 73.1818 106.983 73.4021 106.593 73.7942C106.203 74.1864 105.984 74.7182 105.984 75.2727C105.984 75.8273 106.203 76.3591 106.593 76.7512C106.983 77.1434 107.511 77.3636 108.062 77.3636Z" fill="black"/>
<path d="M58.1875 77.3636H66.5C67.0512 77.3636 67.5797 77.1434 67.9695 76.7512C68.3592 76.3591 68.5781 75.8273 68.5781 75.2727C68.5781 74.7182 68.3592 74.1864 67.9695 73.7942C67.5797 73.4021 67.0512 73.1818 66.5 73.1818H58.1875C57.6363 73.1818 57.1078 73.4021 56.718 73.7942C56.3283 74.1864 56.1094 74.7182 56.1094 75.2727C56.1094 75.8273 56.3283 76.3591 56.718 76.7512C57.1078 77.1434 57.6363 77.3636 58.1875 77.3636Z" fill="black"/>
</svg>
