<svg width="120" height="141" viewBox="0 0 120 141" fill="none" xmlns="http://www.w3.org/2000/svg">
<path d="M33.5677 59.495C33.4148 59.4747 33.26 59.5159 33.1375 59.6096C33.0149 59.7034 32.9346 59.842 32.9143 59.9949C32.8939 60.1479 32.9351 60.3026 33.0289 60.4252C33.1226 60.5477 33.2612 60.628 33.4142 60.6484C34.5506 60.8262 35.5951 61.3784 36.382 62.2173C37.169 63.0562 37.6533 64.1338 37.7583 65.2792C37.7685 65.4264 37.8342 65.5643 37.9422 65.6648C38.0502 65.7653 38.1924 65.8211 38.3399 65.8207H38.38C38.4563 65.8156 38.5308 65.7954 38.5992 65.7615C38.6676 65.7275 38.7287 65.6804 38.779 65.6228C38.8292 65.5652 38.8676 65.4983 38.892 65.4259C38.9163 65.3535 38.9262 65.277 38.921 65.2007C38.7915 63.7893 38.1945 62.4616 37.2248 61.428C36.255 60.3944 34.968 59.7141 33.5677 59.495Z" fill="black"/>
<path d="M57.9645 44.3752C58.1016 44.3752 58.2342 44.3267 58.3391 44.2385C59.6233 43.1898 61.1793 42.528 62.8255 42.3302C64.4716 42.1324 66.1401 42.4067 67.6363 43.1212C67.7744 43.1899 67.9342 43.2009 68.0805 43.1519C68.2267 43.1028 68.3475 42.9976 68.4162 42.8595C68.4849 42.7213 68.496 42.5615 68.4469 42.4153C68.3978 42.269 68.2926 42.1482 68.1545 42.0795C66.4542 41.2681 64.5583 40.9566 62.6878 41.1813C60.8173 41.406 59.0491 42.1576 57.5894 43.3486C57.4981 43.4254 57.4326 43.5285 57.4019 43.6438C57.3712 43.7591 57.3767 43.8811 57.4177 43.9932C57.4586 44.1052 57.5331 44.202 57.6309 44.2703C57.7287 44.3387 57.8452 44.3753 57.9645 44.3752Z" fill="black"/>
<path d="M92.8034 43.504L93.609 42.6658C92.3773 41.5461 90.799 40.8825 89.1372 40.7857C87.4755 40.689 85.8308 41.165 84.4775 42.1342L85.1807 43.0608C86.3103 42.2514 87.6832 41.854 89.0704 41.9346C90.4577 42.0153 91.7753 42.5692 92.8034 43.504Z" fill="black"/>
<path d="M85.1147 81.6396C82.7313 82.8631 80.0361 83.3449 77.3765 83.0228C74.7168 82.7007 72.2145 81.5896 70.1921 79.8325C70.1359 79.7782 70.0695 79.7358 69.9966 79.7078C69.9237 79.6797 69.846 79.6666 69.7679 79.6693C69.6899 79.6719 69.6132 79.6903 69.5424 79.7232C69.4716 79.7561 69.4082 79.803 69.3558 79.8609C69.3035 79.9189 69.2634 79.9868 69.2379 80.0606C69.2124 80.1344 69.2021 80.2126 69.2074 80.2905C69.2128 80.3684 69.2338 80.4444 69.2691 80.514C69.3045 80.5836 69.3535 80.6454 69.4133 80.6957C72.0787 83.0324 75.5096 84.3088 79.0542 84.2825C81.3575 84.2972 83.6286 83.7421 85.6655 82.6668C85.8014 82.5937 85.9027 82.4697 85.9472 82.322C85.9916 82.1742 85.9755 82.0149 85.9025 81.879C85.8295 81.7431 85.7054 81.6417 85.5577 81.5973C85.41 81.5529 85.2506 81.5689 85.1147 81.642V81.6396Z" fill="black"/>
<path d="M67.7728 63.0248C69.1772 63.0248 70.3157 60.8854 70.3157 58.2462C70.3157 55.6071 69.1772 53.4677 67.7728 53.4677C66.3684 53.4677 65.23 55.6071 65.23 58.2462C65.23 60.8854 66.3684 63.0248 67.7728 63.0248Z" fill="black"/>
<path d="M91.9925 63.0249C93.3971 63.0249 94.5353 60.8857 94.5353 58.2463C94.5353 55.6069 93.3971 53.4683 91.9925 53.4683C90.5878 53.4683 89.4502 55.6075 89.4502 58.2463C89.4502 60.8851 90.5884 63.0249 91.9925 63.0249Z" fill="black"/>
<path d="M119.896 139.839L108.071 123.135C105.543 119.563 102.196 116.649 98.3101 114.638C94.4242 112.626 90.1128 111.575 85.737 111.572H83.1081V95.6183C87.232 94.916 90.9748 92.7783 93.6749 89.5832C96.3751 86.3881 97.8588 82.3413 97.8638 78.1581V73.8773C101.425 73.7275 104.791 72.2073 107.258 69.6342C109.725 67.0612 111.103 63.6343 111.103 60.0696C111.103 56.505 109.725 53.0781 107.258 50.5051C104.791 47.9321 101.425 46.4118 97.8638 46.262V44.1972C100.364 43.0824 102.607 41.4627 104.452 39.4399C106.296 37.4172 107.703 35.0349 108.583 32.4427C109.447 29.7858 109.648 26.9579 109.168 24.2056C108.689 21.4532 107.543 18.8599 105.832 16.6517C104.444 14.9675 102.719 13.5928 100.768 12.616C98.8163 11.6393 96.6819 11.0823 94.502 10.9809C94.0838 9.41054 93.3029 7.96026 92.2221 6.74668C90.4656 4.75173 87.9355 3.22788 84.7017 2.22749C79.2054 0.494263 73.1798 0.91303 68.5094 3.33839C62.9526 0.155751 56.394 -0.795987 50.1618 0.675938C43.9296 2.14786 38.4897 5.93342 34.9441 11.2659C33.2574 13.7901 32.4315 16.4888 32.6409 18.7746C25.2427 20.787 19.1298 28.0573 17.9957 36.2697C16.7219 45.6513 21.7413 55.1899 26.9177 61.0642C26.9429 63.566 27.7256 66.0015 29.1628 68.0495C29.2209 68.1367 29.2849 68.224 29.3489 68.3112C28.0239 72.7457 28.4056 77.5154 30.4191 81.6827C32.6583 86.3007 37.7998 89.4822 41.7025 90.8897V111.572H27.4179C24.4674 111.567 21.545 112.146 18.819 113.275C16.093 114.404 13.6171 116.061 11.5339 118.15L0.168997 129.515C0.115149 129.569 0.0725106 129.634 0.0435147 129.704C0.0145187 129.775 -0.000266409 129.851 3.63338e-06 129.927C0.000273676 130.004 0.0155939 130.079 0.0450888 130.15C0.0745838 130.22 0.117676 130.284 0.171906 130.338C0.226135 130.392 0.29044 130.435 0.361148 130.464C0.431856 130.493 0.507583 130.507 0.584005 130.507C0.660427 130.507 0.736046 130.492 0.806548 130.462C0.877049 130.433 0.941051 130.389 0.994898 130.335L12.3539 118.976C14.3289 116.993 16.6767 115.421 19.2621 114.35C21.8476 113.279 24.6194 112.73 27.4179 112.735H38.0965C38.7428 116.011 39.9954 119.138 41.7898 121.954C45.5877 127.875 51.4272 132.156 57.825 133.703C59.7109 134.155 61.6438 134.381 63.5831 134.377C70.8356 134.332 77.7827 131.451 82.9394 126.351C84.6028 124.699 86.0226 122.819 87.1562 120.768C87.1987 120.7 87.227 120.625 87.2394 120.547C87.2518 120.468 87.2479 120.388 87.2281 120.311C87.2083 120.234 87.1729 120.162 87.1242 120.099C87.0754 120.037 87.0143 119.985 86.9446 119.946C86.8749 119.908 86.7982 119.885 86.7191 119.877C86.6399 119.87 86.5601 119.879 86.4846 119.903C86.409 119.928 86.3393 119.968 86.2798 120.02C86.2202 120.073 86.1721 120.137 86.1383 120.209C85.291 121.737 84.2745 123.166 83.1081 124.467V112.735H85.737C89.9257 112.738 94.0528 113.745 97.7726 115.671C101.492 117.596 104.697 120.385 107.117 123.804L118.942 140.514C118.997 140.589 119.068 140.65 119.151 140.692C119.234 140.735 119.326 140.757 119.419 140.758C119.539 140.757 119.656 140.721 119.756 140.653C119.881 140.562 119.965 140.427 119.992 140.274C120.018 140.122 119.983 139.966 119.896 139.839ZM97.8638 47.4252C101.117 47.5749 104.187 48.9724 106.436 51.3273C108.685 53.6822 109.94 56.8133 109.94 60.0696C109.94 63.326 108.685 66.4571 106.436 68.812C104.187 71.1669 101.117 72.5644 97.8638 72.7141V47.4252ZM41.7025 119.459C40.5799 117.344 39.7652 115.08 39.283 112.735H41.7025V119.459ZM96.7006 72.7141C93.4477 72.5644 90.3776 71.1669 88.1285 68.812C85.8795 66.4571 84.6245 63.326 84.6245 60.0696C84.6245 56.8133 85.8795 53.6822 88.1285 51.3273C90.3776 48.9724 93.4477 47.5749 96.7006 47.4252V72.7141ZM42.8658 51.1127C48.0872 46.118 52.2267 40.1038 55.0274 33.4431C65.8973 35.5495 77.161 33.4075 86.4989 27.4582C89.4109 31.6616 92.8381 35.4836 96.7006 38.8347V46.262C94.1911 46.3703 91.7584 47.1593 89.6632 48.5445C87.5679 49.9298 85.889 51.859 84.8064 54.1255C84.1336 53.6724 83.385 53.3435 82.5963 53.1542C82.5846 53.1542 82.5788 53.1484 82.573 53.1484C80.9071 52.712 79.1388 52.9045 77.606 53.6893C76.2455 51.0757 74.0853 48.9654 71.4407 47.6664C68.796 46.3674 65.8054 45.9477 62.9054 46.4686C60.0053 46.9895 57.3477 48.4237 55.3205 50.5619C53.2932 52.7 52.0024 55.4302 51.6366 58.3539H42.8658V51.1127ZM84.3411 55.2306C84.0004 56.1307 83.7567 57.0647 83.6141 58.0165C83.4571 56.8649 83.2942 55.7075 83.1372 54.5559C83.5656 54.7286 83.9702 54.9553 84.3411 55.2306ZM78.0073 60.0696C78.0079 62.5736 77.2658 65.0215 75.8751 67.1037C74.4843 69.1859 72.5073 70.8089 70.194 71.7674C67.8808 72.7259 65.3352 72.9768 62.8794 72.4884C60.4235 72.0001 58.1676 70.7944 56.3971 69.0238C54.6265 67.2532 53.4208 64.9974 52.9324 62.5415C52.4441 60.0856 52.695 57.5401 53.6535 55.2268C54.612 52.9136 56.235 50.9366 58.3172 49.5458C60.3994 48.155 62.8472 47.413 65.3512 47.4136C68.7063 47.4184 71.9227 48.7533 74.2951 51.1257C76.6676 53.4982 78.0025 56.7145 78.0073 60.0696ZM58.0926 132.574C52.0379 131.109 46.4951 127.061 42.8658 121.466V85.1084C43.991 87.9755 45.8762 90.4818 48.3187 92.358C50.7613 94.2342 53.669 95.4094 56.7293 95.7573C63.2545 102.737 78.4877 105.392 81.9448 105.915V125.69C75.6517 131.853 66.3225 134.558 58.0926 132.574ZM80.1535 94.711H58.616C54.4401 94.7068 50.4364 93.0461 47.4835 90.0932C44.5307 87.1404 42.8699 83.1367 42.8658 78.9607V75.1918C42.8654 75.0499 42.8131 74.913 42.7188 74.807C42.6246 74.701 42.4948 74.633 42.3539 74.616C37.5672 74.0053 32.542 71.039 30.1283 67.4039C28.6374 65.3308 27.9323 62.7951 28.1391 60.25C28.459 57.685 30.1981 55.4283 32.3733 54.7653C32.8769 54.6131 33.4002 54.5367 33.9263 54.5384C35.9792 54.6181 37.9235 55.482 39.3586 56.9522C40.3064 57.9017 41.1203 58.976 41.7781 60.1453C41.8416 60.2573 41.9405 60.3451 42.0593 60.3949C42.178 60.4447 42.31 60.4537 42.4344 60.4204C42.5588 60.3871 42.6687 60.3135 42.7467 60.2111C42.8248 60.1087 42.8667 59.9832 42.8658 59.8545V59.5171H51.5435C51.5319 59.6974 51.5261 59.8835 51.5261 60.0696C51.5265 62.1147 51.9807 64.1341 52.856 65.9824C53.7312 67.8307 55.0056 69.4617 56.5874 70.7579C58.1692 72.0541 60.0189 72.9831 62.0031 73.4781C63.9873 73.973 66.0567 74.0215 68.0619 73.62C70.0671 73.2185 71.9583 72.377 73.599 71.1563C75.2398 69.9356 76.5892 68.3661 77.55 66.5608C78.5108 64.7555 79.059 62.7596 79.1552 60.7168C79.2514 58.674 78.8931 56.6354 78.1062 54.7478C79.2767 54.1435 80.6166 53.9509 81.91 54.2011C82.2066 56.3298 82.5013 58.4566 82.794 60.5815C83.1197 62.9254 83.4396 65.2693 83.7711 67.6133C83.9514 68.9684 84.0619 70.2538 83.4338 71.167C82.8615 71.8209 82.1418 72.3293 81.3341 72.6501C80.2116 73.2201 79.0484 73.8075 78.5773 75.0871C78.5443 75.1752 78.5333 75.27 78.545 75.3634C78.5568 75.4567 78.591 75.5458 78.6448 75.623C78.6985 75.7002 78.7702 75.7632 78.8537 75.8067C78.9371 75.8501 79.0299 75.8726 79.124 75.8723C79.2435 75.8722 79.3601 75.8354 79.458 75.7667C79.5558 75.698 79.6301 75.6008 79.6707 75.4884C79.979 74.6393 80.8921 74.1798 81.8634 73.6912C82.8461 73.2897 83.7135 72.6501 84.3876 71.83C85.3299 70.4748 85.0856 68.6602 84.9227 67.4562C84.8413 66.8862 84.7657 66.3163 84.6843 65.7463C85.7383 68.081 87.4198 70.0773 89.5413 71.5129C91.6629 72.9485 94.1413 73.767 96.7006 73.8773V78.1581C96.6964 82.5459 94.9519 86.7529 91.8498 89.8561C88.7477 92.9593 84.5413 94.7053 80.1535 94.711Z" fill="black"/>
</svg>
